<mxfile host="app.diagrams.net" agent="Mozilla/5.0 (Windows NT 10.0; Win64; x64) AppleWebKit/537.36 (KHTML, like Gecko) Chrome/128.0.0.0 Safari/537.36" version="24.7.14">
  <diagram name="Page-1" id="vKShyPn_zEiHa3_wUG9r">
    <mxGraphModel dx="1900" dy="583" grid="1" gridSize="10" guides="1" tooltips="1" connect="1" arrows="1" fold="1" page="1" pageScale="1" pageWidth="850" pageHeight="1100" math="0" shadow="0">
      <root>
        <mxCell id="0" />
        <mxCell id="1" parent="0" />
        <mxCell id="-V4oXCzcTHqhT783bsB0-1" value="" style="rounded=0;whiteSpace=wrap;html=1;" vertex="1" parent="1">
          <mxGeometry x="120" y="40" width="590" height="310" as="geometry" />
        </mxCell>
        <mxCell id="-V4oXCzcTHqhT783bsB0-2" value="" style="endArrow=classic;html=1;rounded=0;entryX=0;entryY=0.5;entryDx=0;entryDy=0;" edge="1" parent="1" target="-V4oXCzcTHqhT783bsB0-1">
          <mxGeometry width="50" height="50" relative="1" as="geometry">
            <mxPoint x="-160" y="195" as="sourcePoint" />
            <mxPoint x="450" y="280" as="targetPoint" />
          </mxGeometry>
        </mxCell>
        <mxCell id="-V4oXCzcTHqhT783bsB0-3" value="&lt;b&gt;Internet Connection&lt;/b&gt;" style="text;html=1;align=center;verticalAlign=middle;resizable=0;points=[];autosize=1;strokeColor=none;fillColor=none;" vertex="1" parent="1">
          <mxGeometry x="-50" y="160" width="140" height="30" as="geometry" />
        </mxCell>
        <mxCell id="-V4oXCzcTHqhT783bsB0-4" value="" style="rounded=0;whiteSpace=wrap;html=1;" vertex="1" parent="1">
          <mxGeometry x="180" y="80" width="120" height="60" as="geometry" />
        </mxCell>
        <mxCell id="-V4oXCzcTHqhT783bsB0-5" value="" style="rounded=0;whiteSpace=wrap;html=1;" vertex="1" parent="1">
          <mxGeometry x="190" y="190" width="120" height="60" as="geometry" />
        </mxCell>
        <mxCell id="-V4oXCzcTHqhT783bsB0-6" value="" style="rounded=0;whiteSpace=wrap;html=1;" vertex="1" parent="1">
          <mxGeometry x="355" y="80" width="120" height="60" as="geometry" />
        </mxCell>
        <mxCell id="-V4oXCzcTHqhT783bsB0-7" value="" style="rounded=0;whiteSpace=wrap;html=1;" vertex="1" parent="1">
          <mxGeometry x="365" y="190" width="120" height="60" as="geometry" />
        </mxCell>
        <mxCell id="-V4oXCzcTHqhT783bsB0-8" value="" style="rounded=0;whiteSpace=wrap;html=1;" vertex="1" parent="1">
          <mxGeometry x="540" y="90" width="120" height="60" as="geometry" />
        </mxCell>
        <mxCell id="-V4oXCzcTHqhT783bsB0-9" value="" style="rounded=0;whiteSpace=wrap;html=1;" vertex="1" parent="1">
          <mxGeometry x="550" y="200" width="120" height="60" as="geometry" />
        </mxCell>
        <mxCell id="-V4oXCzcTHqhT783bsB0-10" value="" style="rounded=0;whiteSpace=wrap;html=1;fillColor=#d5e8d4;strokeColor=#82b366;" vertex="1" parent="1">
          <mxGeometry x="120" y="480" width="590" height="310" as="geometry" />
        </mxCell>
        <mxCell id="-V4oXCzcTHqhT783bsB0-11" value="&lt;b&gt;pincode, name&lt;/b&gt;" style="text;html=1;align=center;verticalAlign=middle;resizable=0;points=[];autosize=1;strokeColor=none;fillColor=none;" vertex="1" parent="1">
          <mxGeometry x="350" y="440" width="110" height="30" as="geometry" />
        </mxCell>
        <mxCell id="-V4oXCzcTHqhT783bsB0-12" value="" style="rounded=0;whiteSpace=wrap;html=1;" vertex="1" parent="1">
          <mxGeometry x="190" y="530" width="120" height="60" as="geometry" />
        </mxCell>
        <mxCell id="-V4oXCzcTHqhT783bsB0-26" style="edgeStyle=orthogonalEdgeStyle;rounded=0;orthogonalLoop=1;jettySize=auto;html=1;" edge="1" parent="1" source="-V4oXCzcTHqhT783bsB0-13" target="-V4oXCzcTHqhT783bsB0-15">
          <mxGeometry relative="1" as="geometry" />
        </mxCell>
        <mxCell id="-V4oXCzcTHqhT783bsB0-13" value="" style="rounded=0;whiteSpace=wrap;html=1;" vertex="1" parent="1">
          <mxGeometry x="190" y="660" width="120" height="60" as="geometry" />
        </mxCell>
        <mxCell id="-V4oXCzcTHqhT783bsB0-25" style="edgeStyle=orthogonalEdgeStyle;rounded=0;orthogonalLoop=1;jettySize=auto;html=1;" edge="1" parent="1" source="-V4oXCzcTHqhT783bsB0-14" target="-V4oXCzcTHqhT783bsB0-17">
          <mxGeometry relative="1" as="geometry" />
        </mxCell>
        <mxCell id="-V4oXCzcTHqhT783bsB0-14" value="" style="rounded=0;whiteSpace=wrap;html=1;" vertex="1" parent="1">
          <mxGeometry x="380" y="530" width="120" height="60" as="geometry" />
        </mxCell>
        <mxCell id="-V4oXCzcTHqhT783bsB0-27" style="edgeStyle=orthogonalEdgeStyle;rounded=0;orthogonalLoop=1;jettySize=auto;html=1;" edge="1" parent="1" source="-V4oXCzcTHqhT783bsB0-15" target="-V4oXCzcTHqhT783bsB0-16">
          <mxGeometry relative="1" as="geometry" />
        </mxCell>
        <mxCell id="-V4oXCzcTHqhT783bsB0-15" value="" style="rounded=0;whiteSpace=wrap;html=1;" vertex="1" parent="1">
          <mxGeometry x="380" y="660" width="120" height="60" as="geometry" />
        </mxCell>
        <mxCell id="-V4oXCzcTHqhT783bsB0-16" value="" style="rounded=0;whiteSpace=wrap;html=1;" vertex="1" parent="1">
          <mxGeometry x="560" y="660" width="120" height="60" as="geometry" />
        </mxCell>
        <mxCell id="-V4oXCzcTHqhT783bsB0-17" value="" style="rounded=0;whiteSpace=wrap;html=1;" vertex="1" parent="1">
          <mxGeometry x="560" y="530" width="120" height="60" as="geometry" />
        </mxCell>
        <mxCell id="-V4oXCzcTHqhT783bsB0-18" value="" style="outlineConnect=0;dashed=0;verticalLabelPosition=bottom;verticalAlign=top;align=center;html=1;shape=mxgraph.aws3.alexa_smart_home_skill;fillColor=#5294CF;gradientColor=none;" vertex="1" parent="1">
          <mxGeometry x="200" y="540" width="40" height="40" as="geometry" />
        </mxCell>
        <mxCell id="-V4oXCzcTHqhT783bsB0-24" style="edgeStyle=orthogonalEdgeStyle;rounded=0;orthogonalLoop=1;jettySize=auto;html=1;entryX=0;entryY=0.5;entryDx=0;entryDy=0;exitX=1;exitY=0.5;exitDx=0;exitDy=0;" edge="1" parent="1" source="-V4oXCzcTHqhT783bsB0-12" target="-V4oXCzcTHqhT783bsB0-14">
          <mxGeometry relative="1" as="geometry" />
        </mxCell>
        <mxCell id="-V4oXCzcTHqhT783bsB0-19" value="&lt;b&gt;HouseNo&lt;/b&gt;" style="text;html=1;align=center;verticalAlign=middle;resizable=0;points=[];autosize=1;strokeColor=none;fillColor=none;" vertex="1" parent="1">
          <mxGeometry x="220" y="550" width="80" height="30" as="geometry" />
        </mxCell>
        <mxCell id="-V4oXCzcTHqhT783bsB0-20" value="&lt;b&gt;name, street number&lt;/b&gt;" style="text;html=1;align=center;verticalAlign=middle;resizable=0;points=[];autosize=1;strokeColor=none;fillColor=none;" vertex="1" parent="1">
          <mxGeometry x="180" y="500" width="140" height="30" as="geometry" />
        </mxCell>
        <mxCell id="-V4oXCzcTHqhT783bsB0-22" value="" style="shape=flexArrow;endArrow=classic;html=1;rounded=0;entryX=0;entryY=0.5;entryDx=0;entryDy=0;" edge="1" parent="1" target="-V4oXCzcTHqhT783bsB0-10">
          <mxGeometry width="50" height="50" relative="1" as="geometry">
            <mxPoint x="-140" y="635" as="sourcePoint" />
            <mxPoint x="-80" y="610" as="targetPoint" />
          </mxGeometry>
        </mxCell>
        <mxCell id="-V4oXCzcTHqhT783bsB0-23" value="&lt;b&gt;main road&lt;/b&gt;" style="text;html=1;align=center;verticalAlign=middle;resizable=0;points=[];autosize=1;strokeColor=none;fillColor=none;" vertex="1" parent="1">
          <mxGeometry x="-40" y="590" width="80" height="30" as="geometry" />
        </mxCell>
        <mxCell id="-V4oXCzcTHqhT783bsB0-29" value="" style="rounded=0;whiteSpace=wrap;html=1;fillColor=#f8cecc;strokeColor=#b85450;" vertex="1" parent="1">
          <mxGeometry x="110" y="910" width="590" height="310" as="geometry" />
        </mxCell>
        <mxCell id="-V4oXCzcTHqhT783bsB0-30" value="&lt;b&gt;Gov village&lt;/b&gt;" style="text;html=1;align=center;verticalAlign=middle;resizable=0;points=[];autosize=1;strokeColor=none;fillColor=none;" vertex="1" parent="1">
          <mxGeometry x="360" y="880" width="90" height="30" as="geometry" />
        </mxCell>
        <mxCell id="-V4oXCzcTHqhT783bsB0-43" style="edgeStyle=orthogonalEdgeStyle;rounded=0;orthogonalLoop=1;jettySize=auto;html=1;entryX=0;entryY=0.5;entryDx=0;entryDy=0;" edge="1" parent="1" source="-V4oXCzcTHqhT783bsB0-31" target="-V4oXCzcTHqhT783bsB0-33">
          <mxGeometry relative="1" as="geometry" />
        </mxCell>
        <mxCell id="-V4oXCzcTHqhT783bsB0-31" value="" style="rounded=0;whiteSpace=wrap;html=1;fillColor=#dae8fc;strokeColor=#6c8ebf;" vertex="1" parent="1">
          <mxGeometry x="160" y="1020" width="120" height="60" as="geometry" />
        </mxCell>
        <mxCell id="-V4oXCzcTHqhT783bsB0-44" style="edgeStyle=orthogonalEdgeStyle;rounded=0;orthogonalLoop=1;jettySize=auto;html=1;entryX=0;entryY=0.5;entryDx=0;entryDy=0;" edge="1" parent="1" source="-V4oXCzcTHqhT783bsB0-33" target="-V4oXCzcTHqhT783bsB0-35">
          <mxGeometry relative="1" as="geometry" />
        </mxCell>
        <mxCell id="-V4oXCzcTHqhT783bsB0-49" style="edgeStyle=orthogonalEdgeStyle;rounded=0;orthogonalLoop=1;jettySize=auto;html=1;entryX=0.5;entryY=1;entryDx=0;entryDy=0;" edge="1" parent="1" source="-V4oXCzcTHqhT783bsB0-33" target="-V4oXCzcTHqhT783bsB0-31">
          <mxGeometry relative="1" as="geometry" />
        </mxCell>
        <mxCell id="-V4oXCzcTHqhT783bsB0-33" value="" style="rounded=0;whiteSpace=wrap;html=1;fillColor=#ffe6cc;strokeColor=#d79b00;" vertex="1" parent="1">
          <mxGeometry x="345" y="1020" width="120" height="60" as="geometry" />
        </mxCell>
        <mxCell id="-V4oXCzcTHqhT783bsB0-35" value="" style="rounded=0;whiteSpace=wrap;html=1;" vertex="1" parent="1">
          <mxGeometry x="530" y="1020" width="120" height="60" as="geometry" />
        </mxCell>
        <mxCell id="-V4oXCzcTHqhT783bsB0-37" value="&lt;b&gt;Public Relations&lt;/b&gt;" style="text;html=1;align=center;verticalAlign=middle;resizable=0;points=[];autosize=1;strokeColor=none;fillColor=none;" vertex="1" parent="1">
          <mxGeometry x="160" y="1020" width="120" height="30" as="geometry" />
        </mxCell>
        <mxCell id="-V4oXCzcTHqhT783bsB0-38" value="&lt;b&gt;Ministry&lt;/b&gt;" style="text;html=1;align=center;verticalAlign=middle;resizable=0;points=[];autosize=1;strokeColor=none;fillColor=none;" vertex="1" parent="1">
          <mxGeometry x="365" y="1020" width="70" height="30" as="geometry" />
        </mxCell>
        <mxCell id="-V4oXCzcTHqhT783bsB0-39" value="&lt;b&gt;PMO&lt;/b&gt;" style="text;html=1;align=center;verticalAlign=middle;resizable=0;points=[];autosize=1;strokeColor=none;fillColor=none;" vertex="1" parent="1">
          <mxGeometry x="565" y="1020" width="50" height="30" as="geometry" />
        </mxCell>
        <mxCell id="-V4oXCzcTHqhT783bsB0-40" value="" style="endArrow=classic;html=1;rounded=0;entryX=0.067;entryY=0.973;entryDx=0;entryDy=0;entryPerimeter=0;" edge="1" parent="1" target="-V4oXCzcTHqhT783bsB0-37">
          <mxGeometry width="50" height="50" relative="1" as="geometry">
            <mxPoint x="-100" y="1050" as="sourcePoint" />
            <mxPoint x="110" y="1050" as="targetPoint" />
          </mxGeometry>
        </mxCell>
        <mxCell id="-V4oXCzcTHqhT783bsB0-41" value="&lt;b&gt;Main&lt;/b&gt;&lt;div&gt;&lt;b&gt;Entrance&lt;/b&gt;&lt;/div&gt;" style="rounded=0;whiteSpace=wrap;html=1;" vertex="1" parent="1">
          <mxGeometry x="80" y="970" width="60" height="190" as="geometry" />
        </mxCell>
        <mxCell id="-V4oXCzcTHqhT783bsB0-45" style="edgeStyle=orthogonalEdgeStyle;rounded=0;orthogonalLoop=1;jettySize=auto;html=1;entryX=0.427;entryY=-0.013;entryDx=0;entryDy=0;entryPerimeter=0;" edge="1" parent="1" source="-V4oXCzcTHqhT783bsB0-35" target="-V4oXCzcTHqhT783bsB0-37">
          <mxGeometry relative="1" as="geometry">
            <Array as="points">
              <mxPoint x="590" y="1000" />
              <mxPoint x="211" y="1000" />
            </Array>
          </mxGeometry>
        </mxCell>
        <mxCell id="-V4oXCzcTHqhT783bsB0-46" value="&lt;b&gt;PR&lt;/b&gt;" style="ellipse;whiteSpace=wrap;html=1;" vertex="1" parent="1">
          <mxGeometry x="190" y="1050" width="40" height="20" as="geometry" />
        </mxCell>
        <mxCell id="-V4oXCzcTHqhT783bsB0-52" style="edgeStyle=orthogonalEdgeStyle;rounded=0;orthogonalLoop=1;jettySize=auto;html=1;" edge="1" parent="1" source="-V4oXCzcTHqhT783bsB0-50">
          <mxGeometry relative="1" as="geometry">
            <mxPoint x="460" y="1320" as="targetPoint" />
          </mxGeometry>
        </mxCell>
        <mxCell id="-V4oXCzcTHqhT783bsB0-50" value="DB&lt;div&gt;yum install mysql-server&lt;/div&gt;" style="whiteSpace=wrap;html=1;aspect=fixed;" vertex="1" parent="1">
          <mxGeometry x="160" y="1320" width="120" height="120" as="geometry" />
        </mxCell>
        <mxCell id="-V4oXCzcTHqhT783bsB0-51" value="&lt;b&gt;yum reppos&lt;/b&gt;" style="ellipse;whiteSpace=wrap;html=1;" vertex="1" parent="1">
          <mxGeometry x="465" y="1280" width="120" height="80" as="geometry" />
        </mxCell>
        <mxCell id="-V4oXCzcTHqhT783bsB0-53" value="&lt;b&gt;NAT&lt;/b&gt;" style="ellipse;whiteSpace=wrap;html=1;" vertex="1" parent="1">
          <mxGeometry x="240" y="1052.5" width="40" height="15" as="geometry" />
        </mxCell>
        <mxCell id="-V4oXCzcTHqhT783bsB0-55" value="AWS Account" style="points=[[0,0],[0.25,0],[0.5,0],[0.75,0],[1,0],[1,0.25],[1,0.5],[1,0.75],[1,1],[0.75,1],[0.5,1],[0.25,1],[0,1],[0,0.75],[0,0.5],[0,0.25]];outlineConnect=0;gradientColor=none;html=1;whiteSpace=wrap;fontSize=12;fontStyle=0;container=1;pointerEvents=0;collapsible=0;recursiveResize=0;shape=mxgraph.aws4.group;grIcon=mxgraph.aws4.group_account;strokeColor=#CD2264;fillColor=none;verticalAlign=top;align=left;spacingLeft=30;fontColor=#CD2264;dashed=0;" vertex="1" parent="1">
          <mxGeometry x="70" y="1520" width="630" height="440" as="geometry" />
        </mxCell>
        <mxCell id="-V4oXCzcTHqhT783bsB0-82" value="" style="sketch=0;outlineConnect=0;fontColor=#232F3E;gradientColor=none;fillColor=#232F3D;strokeColor=none;dashed=0;verticalLabelPosition=bottom;verticalAlign=top;align=center;html=1;fontSize=12;fontStyle=0;aspect=fixed;pointerEvents=1;shape=mxgraph.aws4.internet_alt22;" vertex="1" parent="-V4oXCzcTHqhT783bsB0-55">
          <mxGeometry x="-50" y="184.75" width="78" height="78" as="geometry" />
        </mxCell>
        <mxCell id="-V4oXCzcTHqhT783bsB0-56" value="&lt;b&gt;expense-vpc&lt;/b&gt;" style="points=[[0,0],[0.25,0],[0.5,0],[0.75,0],[1,0],[1,0.25],[1,0.5],[1,0.75],[1,1],[0.75,1],[0.5,1],[0.25,1],[0,1],[0,0.75],[0,0.5],[0,0.25]];outlineConnect=0;gradientColor=none;html=1;whiteSpace=wrap;fontSize=12;fontStyle=0;container=1;pointerEvents=0;collapsible=0;recursiveResize=0;shape=mxgraph.aws4.group;grIcon=mxgraph.aws4.group_vpc2;strokeColor=#8C4FFF;fillColor=none;verticalAlign=top;align=left;spacingLeft=30;fontColor=#AAB7B8;dashed=0;" vertex="1" parent="1">
          <mxGeometry x="120" y="1560" width="520" height="360" as="geometry" />
        </mxCell>
        <mxCell id="-V4oXCzcTHqhT783bsB0-57" value="" style="rounded=1;arcSize=10;dashed=1;strokeColor=#F59D56;fillColor=none;gradientColor=none;dashPattern=8 4;strokeWidth=2;" vertex="1" parent="-V4oXCzcTHqhT783bsB0-56">
          <mxGeometry x="40" y="40" width="450" height="119.5" as="geometry" />
        </mxCell>
        <mxCell id="-V4oXCzcTHqhT783bsB0-58" value="" style="rounded=1;arcSize=10;dashed=1;strokeColor=#1934be;fillColor=none;gradientColor=none;dashPattern=8 4;strokeWidth=2;" vertex="1" parent="-V4oXCzcTHqhT783bsB0-56">
          <mxGeometry x="40" y="200" width="450" height="119.5" as="geometry" />
        </mxCell>
        <mxCell id="-V4oXCzcTHqhT783bsB0-59" value="&lt;b&gt;us-east-1a&lt;/b&gt;" style="text;html=1;align=center;verticalAlign=middle;resizable=0;points=[];autosize=1;strokeColor=none;fillColor=none;" vertex="1" parent="-V4oXCzcTHqhT783bsB0-56">
          <mxGeometry x="225" y="10" width="80" height="30" as="geometry" />
        </mxCell>
        <mxCell id="-V4oXCzcTHqhT783bsB0-60" value="&lt;b&gt;us-east-1b&lt;/b&gt;" style="text;html=1;align=center;verticalAlign=middle;resizable=0;points=[];autosize=1;strokeColor=none;fillColor=none;" vertex="1" parent="-V4oXCzcTHqhT783bsB0-56">
          <mxGeometry x="225" y="165" width="80" height="30" as="geometry" />
        </mxCell>
        <mxCell id="-V4oXCzcTHqhT783bsB0-61" value="Public subnet" style="points=[[0,0],[0.25,0],[0.5,0],[0.75,0],[1,0],[1,0.25],[1,0.5],[1,0.75],[1,1],[0.75,1],[0.5,1],[0.25,1],[0,1],[0,0.75],[0,0.5],[0,0.25]];outlineConnect=0;html=1;whiteSpace=wrap;fontSize=12;fontStyle=0;container=1;pointerEvents=0;collapsible=0;recursiveResize=0;shape=mxgraph.aws4.group;grIcon=mxgraph.aws4.group_security_group;grStroke=0;strokeColor=#82b366;fillColor=#d5e8d4;verticalAlign=top;align=left;spacingLeft=30;dashed=0;" vertex="1" parent="-V4oXCzcTHqhT783bsB0-56">
          <mxGeometry x="60" y="54.75" width="120" height="90" as="geometry" />
        </mxCell>
        <mxCell id="-V4oXCzcTHqhT783bsB0-63" value="&lt;b&gt;10.0.1.0/24&lt;/b&gt;" style="text;html=1;align=center;verticalAlign=middle;resizable=0;points=[];autosize=1;strokeColor=none;fillColor=none;" vertex="1" parent="-V4oXCzcTHqhT783bsB0-61">
          <mxGeometry x="20" y="35.25" width="80" height="30" as="geometry" />
        </mxCell>
        <mxCell id="-V4oXCzcTHqhT783bsB0-62" value="Public subnet" style="points=[[0,0],[0.25,0],[0.5,0],[0.75,0],[1,0],[1,0.25],[1,0.5],[1,0.75],[1,1],[0.75,1],[0.5,1],[0.25,1],[0,1],[0,0.75],[0,0.5],[0,0.25]];outlineConnect=0;html=1;whiteSpace=wrap;fontSize=12;fontStyle=0;container=1;pointerEvents=0;collapsible=0;recursiveResize=0;shape=mxgraph.aws4.group;grIcon=mxgraph.aws4.group_security_group;grStroke=0;strokeColor=#82b366;fillColor=#d5e8d4;verticalAlign=top;align=left;spacingLeft=30;dashed=0;" vertex="1" parent="-V4oXCzcTHqhT783bsB0-56">
          <mxGeometry x="60" y="214.75" width="120" height="90" as="geometry" />
        </mxCell>
        <mxCell id="-V4oXCzcTHqhT783bsB0-64" value="&lt;b&gt;10.0.2.0/24&lt;/b&gt;" style="text;html=1;align=center;verticalAlign=middle;resizable=0;points=[];autosize=1;strokeColor=none;fillColor=none;" vertex="1" parent="-V4oXCzcTHqhT783bsB0-62">
          <mxGeometry x="20" y="30" width="80" height="30" as="geometry" />
        </mxCell>
        <mxCell id="-V4oXCzcTHqhT783bsB0-65" value="&lt;b&gt;Private subnet&lt;/b&gt;" style="points=[[0,0],[0.25,0],[0.5,0],[0.75,0],[1,0],[1,0.25],[1,0.5],[1,0.75],[1,1],[0.75,1],[0.5,1],[0.25,1],[0,1],[0,0.75],[0,0.5],[0,0.25]];outlineConnect=0;html=1;whiteSpace=wrap;fontSize=12;fontStyle=0;container=1;pointerEvents=0;collapsible=0;recursiveResize=0;shape=mxgraph.aws4.group;grIcon=mxgraph.aws4.group_security_group;grStroke=0;strokeColor=#d79b00;fillColor=#ffe6cc;verticalAlign=top;align=left;spacingLeft=30;dashed=0;" vertex="1" parent="-V4oXCzcTHqhT783bsB0-56">
          <mxGeometry x="225" y="54.75" width="120" height="90" as="geometry" />
        </mxCell>
        <mxCell id="-V4oXCzcTHqhT783bsB0-66" value="&lt;b&gt;10.0.11.0/24&lt;/b&gt;" style="text;html=1;align=center;verticalAlign=middle;resizable=0;points=[];autosize=1;strokeColor=none;fillColor=none;" vertex="1" parent="-V4oXCzcTHqhT783bsB0-65">
          <mxGeometry x="15" y="35.25" width="90" height="30" as="geometry" />
        </mxCell>
        <mxCell id="-V4oXCzcTHqhT783bsB0-67" value="&lt;b&gt;Private subnet&lt;/b&gt;" style="points=[[0,0],[0.25,0],[0.5,0],[0.75,0],[1,0],[1,0.25],[1,0.5],[1,0.75],[1,1],[0.75,1],[0.5,1],[0.25,1],[0,1],[0,0.75],[0,0.5],[0,0.25]];outlineConnect=0;html=1;whiteSpace=wrap;fontSize=12;fontStyle=0;container=1;pointerEvents=0;collapsible=0;recursiveResize=0;shape=mxgraph.aws4.group;grIcon=mxgraph.aws4.group_security_group;grStroke=0;strokeColor=#d79b00;fillColor=#ffe6cc;verticalAlign=top;align=left;spacingLeft=30;dashed=0;" vertex="1" parent="-V4oXCzcTHqhT783bsB0-56">
          <mxGeometry x="225" y="214.75" width="120" height="90" as="geometry" />
        </mxCell>
        <mxCell id="-V4oXCzcTHqhT783bsB0-68" value="&lt;b&gt;10.0.12.0/24&lt;/b&gt;" style="text;html=1;align=center;verticalAlign=middle;resizable=0;points=[];autosize=1;strokeColor=none;fillColor=none;" vertex="1" parent="-V4oXCzcTHqhT783bsB0-67">
          <mxGeometry x="15" y="35.25" width="90" height="30" as="geometry" />
        </mxCell>
        <mxCell id="-V4oXCzcTHqhT783bsB0-70" value="&lt;b&gt;Database subnet&lt;/b&gt;" style="points=[[0,0],[0.25,0],[0.5,0],[0.75,0],[1,0],[1,0.25],[1,0.5],[1,0.75],[1,1],[0.75,1],[0.5,1],[0.25,1],[0,1],[0,0.75],[0,0.5],[0,0.25]];outlineConnect=0;html=1;whiteSpace=wrap;fontSize=12;fontStyle=0;container=1;pointerEvents=0;collapsible=0;recursiveResize=0;shape=mxgraph.aws4.group;grIcon=mxgraph.aws4.group_security_group;grStroke=0;strokeColor=#d79b00;fillColor=#ffe6cc;verticalAlign=top;align=left;spacingLeft=30;dashed=0;" vertex="1" parent="-V4oXCzcTHqhT783bsB0-56">
          <mxGeometry x="360" y="54.75" width="150" height="90" as="geometry" />
        </mxCell>
        <mxCell id="-V4oXCzcTHqhT783bsB0-71" value="&lt;b&gt;10.0.21.0/24&lt;/b&gt;" style="text;html=1;align=center;verticalAlign=middle;resizable=0;points=[];autosize=1;strokeColor=none;fillColor=none;" vertex="1" parent="-V4oXCzcTHqhT783bsB0-70">
          <mxGeometry x="15" y="35.25" width="90" height="30" as="geometry" />
        </mxCell>
        <mxCell id="-V4oXCzcTHqhT783bsB0-80" value="Route table" style="sketch=0;outlineConnect=0;fontColor=#232F3E;gradientColor=none;strokeColor=#232F3E;fillColor=#ffffff;dashed=0;verticalLabelPosition=bottom;verticalAlign=top;align=center;html=1;fontSize=12;fontStyle=0;aspect=fixed;shape=mxgraph.aws4.resourceIcon;resIcon=mxgraph.aws4.route_table;" vertex="1" parent="-V4oXCzcTHqhT783bsB0-70">
          <mxGeometry x="90" y="-14.75" width="60" height="60" as="geometry" />
        </mxCell>
        <mxCell id="-V4oXCzcTHqhT783bsB0-74" value="&lt;b&gt;Database subnet&lt;/b&gt;" style="points=[[0,0],[0.25,0],[0.5,0],[0.75,0],[1,0],[1,0.25],[1,0.5],[1,0.75],[1,1],[0.75,1],[0.5,1],[0.25,1],[0,1],[0,0.75],[0,0.5],[0,0.25]];outlineConnect=0;html=1;whiteSpace=wrap;fontSize=12;fontStyle=0;container=1;pointerEvents=0;collapsible=0;recursiveResize=0;shape=mxgraph.aws4.group;grIcon=mxgraph.aws4.group_security_group;grStroke=0;strokeColor=#d79b00;fillColor=#ffe6cc;verticalAlign=top;align=left;spacingLeft=30;dashed=0;" vertex="1" parent="-V4oXCzcTHqhT783bsB0-56">
          <mxGeometry x="360" y="214.75" width="120" height="90" as="geometry" />
        </mxCell>
        <mxCell id="-V4oXCzcTHqhT783bsB0-75" value="&lt;b&gt;10.0.22.0/24&lt;/b&gt;" style="text;html=1;align=center;verticalAlign=middle;resizable=0;points=[];autosize=1;strokeColor=none;fillColor=none;" vertex="1" parent="-V4oXCzcTHqhT783bsB0-74">
          <mxGeometry x="15" y="35.25" width="90" height="30" as="geometry" />
        </mxCell>
        <mxCell id="-V4oXCzcTHqhT783bsB0-76" value="" style="outlineConnect=0;dashed=0;verticalLabelPosition=bottom;verticalAlign=top;align=center;html=1;shape=mxgraph.aws3.route_table;fillColor=#F58536;gradientColor=none;" vertex="1" parent="-V4oXCzcTHqhT783bsB0-56">
          <mxGeometry x="170" y="54.75" width="40" height="35.25" as="geometry" />
        </mxCell>
        <mxCell id="-V4oXCzcTHqhT783bsB0-77" value="" style="outlineConnect=0;dashed=0;verticalLabelPosition=bottom;verticalAlign=top;align=center;html=1;shape=mxgraph.aws3.route_table;fillColor=#F58536;gradientColor=none;" vertex="1" parent="-V4oXCzcTHqhT783bsB0-56">
          <mxGeometry x="170" y="214.75" width="40" height="35.25" as="geometry" />
        </mxCell>
        <mxCell id="-V4oXCzcTHqhT783bsB0-78" value="" style="sketch=0;outlineConnect=0;fontColor=#232F3E;gradientColor=none;fillColor=#8C4FFF;strokeColor=none;dashed=0;verticalLabelPosition=bottom;verticalAlign=top;align=center;html=1;fontSize=12;fontStyle=0;aspect=fixed;pointerEvents=1;shape=mxgraph.aws4.route_table;" vertex="1" parent="-V4oXCzcTHqhT783bsB0-56">
          <mxGeometry x="330" y="50" width="41.05" height="40" as="geometry" />
        </mxCell>
        <mxCell id="-V4oXCzcTHqhT783bsB0-79" value="" style="sketch=0;outlineConnect=0;fontColor=#232F3E;gradientColor=none;fillColor=#8C4FFF;strokeColor=none;dashed=0;verticalLabelPosition=bottom;verticalAlign=top;align=center;html=1;fontSize=12;fontStyle=0;aspect=fixed;pointerEvents=1;shape=mxgraph.aws4.route_table;" vertex="1" parent="-V4oXCzcTHqhT783bsB0-56">
          <mxGeometry x="330" y="200" width="41.05" height="40" as="geometry" />
        </mxCell>
        <mxCell id="-V4oXCzcTHqhT783bsB0-81" value="Route table" style="sketch=0;outlineConnect=0;fontColor=#232F3E;gradientColor=none;strokeColor=#232F3E;fillColor=#ffffff;dashed=0;verticalLabelPosition=bottom;verticalAlign=top;align=center;html=1;fontSize=12;fontStyle=0;aspect=fixed;shape=mxgraph.aws4.resourceIcon;resIcon=mxgraph.aws4.route_table;" vertex="1" parent="-V4oXCzcTHqhT783bsB0-56">
          <mxGeometry x="460" y="190" width="60" height="60" as="geometry" />
        </mxCell>
        <mxCell id="-V4oXCzcTHqhT783bsB0-83" value="" style="sketch=0;outlineConnect=0;fontColor=#232F3E;gradientColor=none;fillColor=#8C4FFF;strokeColor=none;dashed=0;verticalLabelPosition=bottom;verticalAlign=top;align=center;html=1;fontSize=12;fontStyle=0;aspect=fixed;pointerEvents=1;shape=mxgraph.aws4.nat_gateway;" vertex="1" parent="-V4oXCzcTHqhT783bsB0-56">
          <mxGeometry x="50" y="100" width="30" height="30" as="geometry" />
        </mxCell>
      </root>
    </mxGraphModel>
  </diagram>
</mxfile>
